<?xml version="1.0" standalone="no"?>
<!DOCTYPE svg PUBLIC "-//W3C//DTD SVG 20010904//EN"
 "http://www.w3.org/TR/2001/REC-SVG-20010904/DTD/svg10.dtd">
<svg version="1.0" xmlns="http://www.w3.org/2000/svg"
 width="1536.000000pt" height="1024.000000pt" viewBox="0 0 1536.000000 1024.000000"
 preserveAspectRatio="xMidYMid meet">

<g transform="translate(0.000000,1024.000000) scale(0.100000,-0.100000)"
fill="#000000" stroke="none">
<path d="M7588 7033 c23 -2 59 -2 80 0 20 2 1 4 -43 4 -44 0 -61 -2 -37 -4z"/>
<path d="M7368 7023 c17 -2 47 -2 65 0 17 2 3 4 -33 4 -36 0 -50 -2 -32 -4z"/>
<path d="M7803 7023 c15 -2 37 -2 50 0 12 2 0 4 -28 4 -27 0 -38 -2 -22 -4z"/>
<path d="M7208 7013 c12 -2 32 -2 45 0 12 2 2 4 -23 4 -25 0 -35 -2 -22 -4z"/>
<path d="M7361 7009 c-148 -9 -520 -42 -651 -59 -427 -54 -435 -55 -788 -54
l-343 0 -6 -26 c-11 -49 -45 -105 -91 -152 -44 -46 -79 -67 -51 -30 13 15 12
16 -3 3 -10 -7 -15 -17 -13 -22 8 -11 -33 -31 -47 -23 -7 4 -8 3 -4 -4 8 -14
-90 -66 -111 -58 -8 3 -12 2 -9 -2 8 -13 -129 -76 -144 -67 -8 5 -11 4 -7 -2
8 -13 -187 -108 -203 -98 -8 5 -11 4 -7 -2 8 -13 -187 -108 -203 -98 -8 5 -11
4 -7 -2 8 -13 -187 -108 -203 -98 -8 5 -11 4 -7 -2 8 -13 -147 -88 -163 -78
-8 5 -11 4 -7 -3 8 -12 -109 -63 -225 -98 -118 -35 -248 -46 -458 -38 -213 7
-343 -5 -464 -43 -44 -14 -87 -27 -95 -30 -14 -4 -14 -4 -1 6 8 6 10 11 4 11
-6 0 -18 -8 -25 -17 -9 -10 -9 -14 -2 -10 14 9 57 -68 48 -83 -4 -6 18 -1 47
10 143 53 200 61 488 70 151 5 302 13 335 19 150 26 386 102 614 196 88 36
166 63 172 59 7 -4 9 -3 6 3 -8 13 68 47 84 38 8 -5 10 -4 5 3 -4 7 -5 12 -3
12 2 0 71 29 153 65 82 36 155 63 162 60 7 -3 11 -1 8 4 -6 8 289 136 464 202
331 123 827 232 1355 298 307 38 412 45 645 45 250 0 321 -8 524 -60 167 -42
404 -143 390 -166 -4 -7 -3 -8 4 -4 16 10 74 -22 66 -36 -4 -7 -3 -8 4 -4 14
8 134 -63 127 -75 -3 -4 0 -11 6 -15 8 -5 9 -3 4 6 -5 8 -3 11 6 8 8 -3 14
-10 14 -15 0 -6 4 -15 9 -20 5 -5 6 -2 1 6 -5 9 -3 12 6 9 8 -3 14 -10 14 -15
0 -6 4 -15 9 -20 5 -5 6 -2 1 6 -5 9 -3 12 6 9 8 -3 14 -10 14 -15 0 -6 4 -15
9 -20 5 -5 6 -2 1 6 -5 9 -3 12 6 9 8 -3 14 -10 14 -15 0 -6 4 -15 9 -20 5 -5
6 -3 2 5 -11 18 9 15 25 -5 12 -14 12 -16 0 -8 -10 5 -12 4 -7 -4 4 -6 11 -9
16 -6 12 8 61 -25 55 -35 -3 -5 0 -12 6 -16 8 -5 9 -3 4 6 -5 8 -3 11 6 8 8
-3 14 -10 14 -16 0 -5 4 -14 9 -19 5 -5 6 -2 1 6 -5 9 -3 12 6 9 8 -3 14 -10
14 -16 0 -5 4 -14 9 -19 5 -5 6 -3 2 5 -11 18 9 15 25 -5 10 -11 10 -14 2 -9
-19 11 -16 1 4 -15 14 -12 16 -12 9 0 -6 9 -4 12 5 9 8 -3 14 -10 14 -16 0 -5
4 -14 9 -19 5 -5 6 -2 1 6 -5 9 -3 12 6 9 8 -3 14 -10 14 -16 0 -5 4 -14 9
-19 5 -5 6 -3 2 5 -11 18 9 15 25 -5 10 -11 10 -14 2 -9 -19 11 -16 1 4 -15
14 -12 16 -12 9 0 -6 9 -4 12 5 9 8 -3 14 -10 14 -16 0 -5 4 -14 9 -19 5 -5 6
-2 1 6 -5 9 -3 12 6 9 8 -3 14 -10 14 -16 0 -5 4 -14 9 -19 5 -5 6 -2 1 6 -5
9 -3 12 6 9 8 -3 14 -10 14 -16 0 -5 4 -14 9 -19 5 -5 6 -2 1 6 -5 9 -3 12 6
9 8 -3 14 -10 14 -16 0 -5 4 -14 9 -19 5 -5 6 -3 2 5 -11 18 9 15 25 -5 12
-14 12 -16 0 -8 -10 5 -12 4 -7 -4 4 -6 11 -9 16 -6 13 8 52 -14 45 -25 -3 -5
0 -12 6 -16 8 -5 9 -3 4 6 -5 8 -3 11 6 8 8 -3 14 -10 14 -16 0 -5 4 -14 9
-19 5 -5 6 -2 1 6 -5 9 -3 12 6 9 8 -3 13 -11 11 -17 -1 -7 2 -10 8 -6 14 9
101 -45 93 -57 -3 -7 -1 -8 5 -4 15 9 95 -32 87 -44 -4 -6 1 -7 11 -3 12 4 15
3 10 -5 -5 -8 -1 -10 10 -5 12 4 15 3 10 -5 -5 -8 -1 -10 10 -5 12 4 15 3 10
-5 -5 -8 -1 -10 10 -5 10 3 15 2 12 -3 -4 -5 4 -10 15 -10 12 -1 67 -21 122
-44 116 -48 258 -90 402 -119 101 -21 327 -49 413 -52 l45 -2 -45 -6 c-25 -3
38 -7 140 -8 258 -2 867 -30 1035 -48 77 -9 193 -26 259 -39 112 -23 167 -25
134 -5 -7 5 -20 6 -29 4 -9 -3 -35 2 -59 10 -144 51 -324 73 -695 85 -711 23
-1009 57 -1325 154 -136 41 -326 121 -323 135 2 6 -5 7 -14 4 -11 -4 -14 -3
-9 5 5 8 1 10 -10 5 -12 -4 -15 -3 -10 5 4 7 2 10 -6 7 -19 -7 -160 74 -152
87 4 7 3 8 -4 4 -14 -9 -55 12 -47 24 3 5 0 12 -6 16 -8 5 -9 3 -4 -6 5 -8 3
-11 -6 -8 -8 3 -14 10 -14 16 0 5 -4 14 -9 19 -5 5 -6 2 -1 -6 5 -9 3 -12 -6
-9 -8 3 -14 10 -14 16 0 5 -4 14 -9 19 -5 5 -6 2 -1 -6 5 -9 3 -12 -6 -9 -8 3
-14 10 -14 16 0 5 -4 14 -9 19 -5 5 -6 2 -1 -6 5 -9 3 -12 -6 -9 -8 3 -14 10
-14 16 0 5 -4 14 -9 19 -5 5 -6 2 -1 -6 5 -9 3 -12 -6 -9 -8 3 -14 10 -14 16
0 6 -7 17 -15 24 -12 11 -12 11 -1 -4 7 -10 9 -18 3 -18 -11 0 -39 31 -34 37
2 3 0 8 -4 11 -4 4 -4 1 0 -5 11 -19 -9 -16 -25 4 -10 11 -10 14 -1 9 18 -11
15 -1 -5 15 -14 12 -16 12 -9 0 6 -9 4 -12 -5 -9 -8 3 -14 10 -14 16 0 5 -4
14 -9 19 -5 5 -6 3 -2 -4 11 -19 -9 -16 -25 4 -10 11 -10 14 -1 9 18 -11 15
-1 -5 15 -14 12 -16 12 -9 0 6 -9 4 -12 -5 -9 -8 3 -14 10 -14 16 0 5 -4 14
-9 19 -5 5 -6 3 -2 -4 11 -19 -9 -16 -25 4 -10 11 -10 14 -1 9 18 -11 15 -1
-5 15 -14 12 -16 12 -9 0 6 -9 4 -12 -5 -9 -8 3 -14 10 -14 16 0 5 -4 14 -9
19 -5 5 -6 2 -1 -6 5 -9 3 -12 -6 -9 -8 3 -14 10 -14 16 0 5 -4 14 -9 19 -5 5
-6 3 -2 -4 4 -7 3 -13 -3 -13 -10 0 -26 19 -26 32 0 3 -4 10 -9 15 -5 5 -6 3
-2 -4 11 -19 -9 -16 -25 4 -10 11 -10 14 -1 9 18 -11 15 -1 -5 15 -14 12 -16
12 -9 0 6 -9 4 -12 -5 -9 -8 3 -14 10 -14 15 0 6 -4 15 -9 20 -5 5 -6 3 -2 -4
11 -19 -9 -16 -25 4 -10 11 -10 14 -1 9 18 -11 15 -1 -5 15 -14 12 -16 12 -9
0 6 -9 4 -12 -5 -9 -8 3 -14 10 -14 15 0 6 -4 15 -9 20 -5 5 -6 2 -1 -6 5 -9
3 -12 -6 -9 -8 3 -14 10 -14 15 0 6 -4 15 -9 20 -5 5 -6 3 -2 -4 11 -19 -9
-16 -25 4 -10 11 -10 14 -1 9 18 -11 15 -1 -5 15 -14 12 -16 12 -9 0 6 -9 4
-12 -5 -9 -8 3 -14 10 -14 15 0 6 -4 15 -9 20 -5 5 -6 2 -1 -6 5 -9 3 -12 -6
-9 -8 3 -14 10 -14 15 0 6 -4 15 -9 20 -5 5 -6 3 -2 -4 4 -7 5 -13 2 -13 -8 0
-96 61 -96 66 0 3 5 2 12 -2 7 -4 8 -3 4 5 -4 6 -12 9 -17 6 -5 -3 -39 12 -76
33 -122 71 -196 104 -328 147 -254 83 -511 107 -914 84z"/>
<path d="M7923 7013 c9 -2 25 -2 35 0 9 3 1 5 -18 5 -19 0 -27 -2 -17 -5z"/>
<path d="M7098 7003 c12 -2 30 -2 40 0 9 3 -1 5 -23 4 -22 0 -30 -2 -17 -4z"/>
<path d="M8008 7003 c6 -2 18 -2 25 0 6 3 1 5 -13 5 -14 0 -19 -2 -12 -5z"/>
<path d="M6983 6993 c9 -2 25 -2 35 0 9 3 1 5 -18 5 -19 0 -27 -2 -17 -5z"/>
<path d="M8058 6993 c6 -2 18 -2 25 0 6 3 1 5 -13 5 -14 0 -19 -2 -12 -5z"/>
<path d="M6878 6983 c12 -2 30 -2 40 0 9 3 -1 5 -23 4 -22 0 -30 -2 -17 -4z"/>
<path d="M6783 6973 c9 -2 25 -2 35 0 9 3 1 5 -18 5 -19 0 -27 -2 -17 -5z"/>
<path d="M8158 6973 c7 -3 16 -2 19 1 4 3 -2 6 -13 5 -11 0 -14 -3 -6 -6z"/>
<path d="M6698 6963 c6 -2 18 -2 25 0 6 3 1 5 -13 5 -14 0 -19 -2 -12 -5z"/>
<path d="M6613 6953 c9 -2 25 -2 35 0 9 3 1 5 -18 5 -19 0 -27 -2 -17 -5z"/>
<path d="M8228 6953 c7 -3 16 -2 19 1 4 3 -2 6 -13 5 -11 0 -14 -3 -6 -6z"/>
<path d="M6533 6943 c9 -2 23 -2 30 0 6 3 -1 5 -18 5 -16 0 -22 -2 -12 -5z"/>
<path d="M6443 6933 c9 -2 25 -2 35 0 9 3 1 5 -18 5 -19 0 -27 -2 -17 -5z"/>
<path d="M6353 6923 c9 -2 23 -2 30 0 6 3 -1 5 -18 5 -16 0 -22 -2 -12 -5z"/>
<path d="M5563 6905 c-3 -9 -3 -19 1 -22 3 -4 6 1 6 10 0 10 11 17 33 20 l32
4 -33 1 c-21 1 -35 -3 -39 -13z"/>
<path d="M6243 6913 c15 -2 37 -2 50 0 12 2 0 4 -28 4 -27 0 -38 -2 -22 -4z"/>
<path d="M5883 6903 c48 -2 126 -2 175 0 48 1 8 3 -88 3 -96 0 -136 -2 -87 -3z"/>
<path d="M7532 6903 c37 -2 100 -2 140 0 40 1 10 3 -67 3 -77 0 -110 -1 -73
-3z"/>
<path d="M8380 6900 c8 -5 20 -10 25 -10 6 0 3 5 -5 10 -8 5 -19 10 -25 10 -5
0 -3 -5 5 -10z"/>
<path d="M7333 6893 c15 -2 37 -2 50 0 12 2 0 4 -28 4 -27 0 -38 -2 -22 -4z"/>
<path d="M7818 6893 c12 -2 30 -2 40 0 9 3 -1 5 -23 4 -22 0 -30 -2 -17 -4z"/>
<path d="M7228 6883 c12 -2 30 -2 40 0 9 3 -1 5 -23 4 -22 0 -30 -2 -17 -4z"/>
<path d="M7903 6883 c9 -2 23 -2 30 0 6 3 -1 5 -18 5 -16 0 -22 -2 -12 -5z"/>
<path d="M7118 6873 c12 -2 30 -2 40 0 9 3 -1 5 -23 4 -22 0 -30 -2 -17 -4z"/>
<path d="M7968 6873 c7 -3 16 -2 19 1 4 3 -2 6 -13 5 -11 0 -14 -3 -6 -6z"/>
<path d="M8441 6876 c10 -9 129 -66 129 -61 0 5 -116 65 -126 65 -4 0 -5 -2
-3 -4z"/>
<path d="M7033 6863 c9 -2 23 -2 30 0 6 3 -1 5 -18 5 -16 0 -22 -2 -12 -5z"/>
<path d="M8018 6863 c6 -2 18 -2 25 0 6 3 1 5 -13 5 -14 0 -19 -2 -12 -5z"/>
<path d="M6953 6853 c9 -2 23 -2 30 0 6 3 -1 5 -18 5 -16 0 -22 -2 -12 -5z"/>
<path d="M8068 6853 c7 -3 16 -2 19 1 4 3 -2 6 -13 5 -11 0 -14 -3 -6 -6z"/>
<path d="M6878 6843 c6 -2 18 -2 25 0 6 3 1 5 -13 5 -14 0 -19 -2 -12 -5z"/>
<path d="M6803 6833 c9 -2 23 -2 30 0 6 3 -1 5 -18 5 -16 0 -22 -2 -12 -5z"/>
<path d="M8148 6833 c7 -3 16 -2 19 1 4 3 -2 6 -13 5 -11 0 -14 -3 -6 -6z"/>
<path d="M6733 6823 c9 -2 23 -2 30 0 6 3 -1 5 -18 5 -16 0 -22 -2 -12 -5z"/>
<path d="M6668 6813 c6 -2 18 -2 25 0 6 3 1 5 -13 5 -14 0 -19 -2 -12 -5z"/>
<path d="M6608 6803 c6 -2 18 -2 25 0 6 3 1 5 -13 5 -14 0 -19 -2 -12 -5z"/>
<path d="M6548 6793 c6 -2 18 -2 25 0 6 3 1 5 -13 5 -14 0 -19 -2 -12 -5z"/>
<path d="M8600 6796 c0 -3 9 -10 20 -16 11 -6 20 -8 20 -6 0 3 -9 10 -20 16
-11 6 -20 8 -20 6z"/>
<path d="M6488 6783 c6 -2 18 -2 25 0 6 3 1 5 -13 5 -14 0 -19 -2 -12 -5z"/>
<path d="M8310 6780 c8 -5 20 -10 25 -10 6 0 3 5 -5 10 -8 5 -19 10 -25 10 -5
0 -3 -5 5 -10z"/>
<path d="M6448 6773 c7 -3 16 -2 19 1 4 3 -2 6 -13 5 -11 0 -14 -3 -6 -6z"/>
<path d="M6388 6763 c6 -2 18 -2 25 0 6 3 1 5 -13 5 -14 0 -19 -2 -12 -5z"/>
<path d="M8360 6760 c8 -5 20 -10 25 -10 6 0 3 5 -5 10 -8 5 -19 10 -25 10 -5
0 -3 -5 5 -10z"/>
<path d="M5474 6728 l-29 -33 33 29 c30 28 37 36 29 36 -2 0 -16 -15 -33 -32z"/>
<path d="M6338 6753 c7 -3 16 -2 19 1 4 3 -2 6 -13 5 -11 0 -14 -3 -6 -6z"/>
<path d="M6298 6743 c7 -3 16 -2 19 1 4 3 -2 6 -13 5 -11 0 -14 -3 -6 -6z"/>
<path d="M6248 6733 c7 -3 16 -2 19 1 4 3 -2 6 -13 5 -11 0 -14 -3 -6 -6z"/>
<path d="M6198 6723 c7 -3 16 -2 19 1 4 3 -2 6 -13 5 -11 0 -14 -3 -6 -6z"/>
<path d="M8710 6727 c0 -3 12 -12 26 -22 15 -9 23 -12 20 -6 -7 11 -46 35 -46
28z"/>
<path d="M6158 6713 c7 -3 16 -2 19 1 4 3 -2 6 -13 5 -11 0 -14 -3 -6 -6z"/>
<path d="M6108 6703 c7 -3 16 -2 19 1 4 3 -2 6 -13 5 -11 0 -14 -3 -6 -6z"/>
<path d="M6068 6693 c7 -3 16 -2 19 1 4 3 -2 6 -13 5 -11 0 -14 -3 -6 -6z"/>
<path d="M6028 6683 c7 -3 16 -2 19 1 4 3 -2 6 -13 5 -11 0 -14 -3 -6 -6z"/>
<path d="M5978 6673 c7 -3 16 -2 19 1 4 3 -2 6 -13 5 -11 0 -14 -3 -6 -6z"/>
<path d="M8540 6676 c0 -3 9 -10 20 -16 11 -6 20 -8 20 -6 0 3 -9 10 -20 16
-11 6 -20 8 -20 6z"/>
<path d="M8640 6616 c0 -3 9 -10 20 -16 11 -6 20 -8 20 -6 0 3 -9 10 -20 16
-11 6 -20 8 -20 6z"/>
<path d="M5170 6555 c-25 -13 -40 -24 -35 -24 6 0 30 11 55 24 25 13 41 24 35
24 -5 0 -30 -11 -55 -24z"/>
<path d="M5480 6510 c-8 -5 -10 -10 -5 -10 6 0 17 5 25 10 8 5 11 10 5 10 -5
0 -17 -5 -25 -10z"/>
<path d="M5010 6480 c-19 -11 -30 -19 -25 -19 6 0 26 8 45 19 19 11 31 19 25
19 -5 0 -26 -8 -45 -19z"/>
<path d="M5360 6460 c-8 -5 -10 -10 -5 -10 6 0 17 5 25 10 8 5 11 10 5 10 -5
0 -17 -5 -25 -10z"/>
<path d="M8900 6446 c0 -2 8 -10 18 -17 15 -13 16 -12 3 4 -13 16 -21 21 -21
13z"/>
<path d="M5290 6430 c-8 -5 -10 -10 -5 -10 6 0 17 5 25 10 8 5 11 10 5 10 -5
0 -17 -5 -25 -10z"/>
<path d="M4800 6380 c-30 -16 -50 -29 -45 -29 6 0 35 13 65 29 30 16 51 29 45
29 -5 0 -35 -13 -65 -29z"/>
<path d="M5220 6400 c-8 -5 -10 -10 -5 -10 6 0 17 5 25 10 8 5 11 10 5 10 -5
0 -17 -5 -25 -10z"/>
<path d="M5080 6340 c-8 -5 -10 -10 -5 -10 6 0 17 5 25 10 8 5 11 10 5 10 -5
0 -17 -5 -25 -10z"/>
<path d="M5010 6310 c-8 -5 -10 -10 -5 -10 6 0 17 5 25 10 8 5 11 10 5 10 -5
0 -17 -5 -25 -10z"/>
<path d="M4580 6275 c-25 -13 -40 -24 -35 -24 6 0 30 11 55 24 25 13 41 24 35
24 -5 0 -30 -11 -55 -24z"/>
<path d="M4920 6270 c-8 -5 -10 -10 -5 -10 6 0 17 5 25 10 8 5 11 10 5 10 -5
0 -17 -5 -25 -10z"/>
<path d="M4380 6180 c-30 -16 -50 -29 -45 -29 6 0 35 13 65 29 30 16 51 29 45
29 -5 0 -35 -13 -65 -29z"/>
<path d="M4670 6160 c-8 -5 -10 -10 -5 -10 6 0 17 5 25 10 8 5 11 10 5 10 -5
0 -17 -5 -25 -10z"/>
<path d="M4620 6140 c-8 -5 -10 -10 -5 -10 6 0 17 5 25 10 8 5 11 10 5 10 -5
0 -17 -5 -25 -10z"/>
<path d="M4250 6120 c-8 -5 -10 -10 -5 -10 6 0 17 5 25 10 8 5 11 10 5 10 -5
0 -17 -5 -25 -10z"/>
<path d="M9590 6116 c0 -3 9 -10 20 -16 11 -6 20 -8 20 -6 0 3 -9 10 -20 16
-11 6 -20 8 -20 6z"/>
<path d="M9660 6076 c0 -3 9 -10 20 -16 11 -6 20 -8 20 -6 0 3 -9 10 -20 16
-11 6 -20 8 -20 6z"/>
<path d="M9460 6066 c0 -3 9 -10 20 -16 11 -6 20 -8 20 -6 0 3 -9 10 -20 16
-11 6 -20 8 -20 6z"/>
<path d="M4400 6050 c-8 -5 -10 -10 -5 -10 6 0 17 5 25 10 8 5 11 10 5 10 -5
0 -17 -5 -25 -10z"/>
<path d="M4048 6043 c7 -3 16 -2 19 1 4 3 -2 6 -13 5 -11 0 -14 -3 -6 -6z"/>
<path d="M4008 6033 c7 -3 16 -2 19 1 4 3 -2 6 -13 5 -11 0 -14 -3 -6 -6z"/>
<path d="M3958 6023 c6 -2 18 -2 25 0 6 3 1 5 -13 5 -14 0 -19 -2 -12 -5z"/>
<path d="M9530 6026 c0 -3 9 -10 20 -16 11 -6 20 -8 20 -6 0 3 -9 10 -20 16
-11 6 -20 8 -20 6z"/>
<path d="M3443 6013 c26 -2 68 -2 95 0 26 2 4 3 -48 3 -52 0 -74 -1 -47 -3z"/>
<path d="M3878 6013 c12 -2 30 -2 40 0 9 3 -1 5 -23 4 -22 0 -30 -2 -17 -4z"/>
<path d="M3303 6003 c9 -2 23 -2 30 0 6 3 -1 5 -18 5 -16 0 -22 -2 -12 -5z"/>
<path d="M3708 6003 c23 -2 61 -2 85 0 23 2 4 4 -43 4 -47 0 -66 -2 -42 -4z"/>
<path d="M3238 5993 c6 -2 18 -2 25 0 6 3 1 5 -13 5 -14 0 -19 -2 -12 -5z"/>
<path d="M9820 5990 c8 -5 20 -10 25 -10 6 0 3 5 -5 10 -8 5 -19 10 -25 10 -5
0 -3 -5 5 -10z"/>
<path d="M3198 5983 c7 -3 16 -2 19 1 4 3 -2 6 -13 5 -11 0 -14 -3 -6 -6z"/>
<path d="M3158 5973 c7 -3 16 -2 19 1 4 3 -2 6 -13 5 -11 0 -14 -3 -6 -6z"/>
<path d="M4155 5970 c-13 -5 -14 -9 -5 -9 8 0 24 4 35 9 13 5 14 9 5 9 -8 0
-24 -4 -35 -9z"/>
<path d="M9890 5960 c8 -5 20 -10 25 -10 6 0 3 5 -5 10 -8 5 -19 10 -25 10 -5
0 -3 -5 5 -10z"/>
<path d="M3080 5950 c-8 -5 -10 -10 -5 -10 6 0 17 5 25 10 8 5 11 10 5 10 -5
0 -17 -5 -25 -10z"/>
<path d="M4078 5943 c7 -3 16 -2 19 1 4 3 -2 6 -13 5 -11 0 -14 -3 -6 -6z"/>
<path d="M4038 5933 c7 -3 16 -2 19 1 4 3 -2 6 -13 5 -11 0 -14 -3 -6 -6z"/>
<path d="M3928 5913 c6 -2 18 -2 25 0 6 3 1 5 -13 5 -14 0 -19 -2 -12 -5z"/>
<path d="M9750 5910 c8 -5 20 -10 25 -10 6 0 3 5 -5 10 -8 5 -19 10 -25 10 -5
0 -3 -5 5 -10z"/>
<path d="M3838 5903 c12 -2 30 -2 40 0 9 3 -1 5 -23 4 -22 0 -30 -2 -17 -4z"/>
<path d="M3045 5870 c9 -16 18 -30 21 -30 2 0 -2 14 -11 30 -9 17 -18 30 -21
30 -2 0 2 -13 11 -30z"/>
<path d="M3493 5893 c54 -2 139 -2 190 0 51 1 7 3 -98 3 -104 0 -146 -2 -92
-3z"/>
<path d="M10068 5893 c7 -3 16 -2 19 1 4 3 -2 6 -13 5 -11 0 -14 -3 -6 -6z"/>
<path d="M3343 5883 c9 -2 23 -2 30 0 6 3 -1 5 -18 5 -16 0 -22 -2 -12 -5z"/>
<path d="M3288 5873 c7 -3 16 -2 19 1 4 3 -2 6 -13 5 -11 0 -14 -3 -6 -6z"/>
<path d="M10208 5853 c7 -3 16 -2 19 1 4 3 -2 6 -13 5 -11 0 -14 -3 -6 -6z"/>
<path d="M9930 5840 c8 -5 22 -9 30 -9 10 0 8 3 -5 9 -27 12 -43 12 -25 0z"/>
<path d="M10248 5843 c7 -3 16 -2 19 1 4 3 -2 6 -13 5 -11 0 -14 -3 -6 -6z"/>
<path d="M10288 5833 c6 -2 18 -2 25 0 6 3 1 5 -13 5 -14 0 -19 -2 -12 -5z"/>
<path d="M10338 5823 c6 -2 18 -2 25 0 6 3 1 5 -13 5 -14 0 -19 -2 -12 -5z"/>
<path d="M10398 5813 c7 -3 16 -2 19 1 4 3 -2 6 -13 5 -11 0 -14 -3 -6 -6z"/>
<path d="M10048 5803 c7 -3 16 -2 19 1 4 3 -2 6 -13 5 -11 0 -14 -3 -6 -6z"/>
<path d="M10448 5803 c6 -2 18 -2 25 0 6 3 1 5 -13 5 -14 0 -19 -2 -12 -5z"/>
<path d="M10088 5793 c7 -3 16 -2 19 1 4 3 -2 6 -13 5 -11 0 -14 -3 -6 -6z"/>
<path d="M10513 5793 c9 -2 23 -2 30 0 6 3 -1 5 -18 5 -16 0 -22 -2 -12 -5z"/>
<path d="M10128 5783 c7 -3 16 -2 19 1 4 3 -2 6 -13 5 -11 0 -14 -3 -6 -6z"/>
<path d="M10593 5783 c9 -2 23 -2 30 0 6 3 -1 5 -18 5 -16 0 -22 -2 -12 -5z"/>
<path d="M10168 5773 c7 -3 16 -2 19 1 4 3 -2 6 -13 5 -11 0 -14 -3 -6 -6z"/>
<path d="M10673 5773 c9 -2 25 -2 35 0 9 3 1 5 -18 5 -19 0 -27 -2 -17 -5z"/>
<path d="M10218 5763 c6 -2 18 -2 25 0 6 3 1 5 -13 5 -14 0 -19 -2 -12 -5z"/>
<path d="M10778 5763 c12 -2 30 -2 40 0 9 3 -1 5 -23 4 -22 0 -30 -2 -17 -4z"/>
<path d="M10268 5753 c6 -2 18 -2 25 0 6 3 1 5 -13 5 -14 0 -19 -2 -12 -5z"/>
<path d="M10898 5753 c18 -2 45 -2 60 0 15 2 0 4 -33 4 -33 0 -45 -2 -27 -4z"/>
<path d="M10333 5743 c9 -2 23 -2 30 0 6 3 -1 5 -18 5 -16 0 -22 -2 -12 -5z"/>
<path d="M11087 5743 c18 -2 50 -2 70 0 21 2 7 4 -32 4 -38 0 -55 -2 -38 -4z"/>
<path d="M10403 5733 c9 -2 25 -2 35 0 9 3 1 5 -18 5 -19 0 -27 -2 -17 -5z"/>
<path d="M11353 5733 c31 -2 83 -2 115 0 31 2 5 3 -58 3 -63 0 -89 -1 -57 -3z"/>
<path d="M10503 5723 c9 -2 25 -2 35 0 9 3 1 5 -18 5 -19 0 -27 -2 -17 -5z"/>
<path d="M11647 5723 c18 -2 50 -2 70 0 21 2 7 4 -32 4 -38 0 -55 -2 -38 -4z"/>
<path d="M11793 5713 c9 -2 25 -2 35 0 9 3 1 5 -18 5 -19 0 -27 -2 -17 -5z"/>
<path d="M10753 5703 c15 -2 39 -2 55 0 15 2 2 4 -28 4 -30 0 -43 -2 -27 -4z"/>
<path d="M11878 5703 c6 -2 18 -2 25 0 6 3 1 5 -13 5 -14 0 -19 -2 -12 -5z"/>
<path d="M10948 5693 c23 -2 59 -2 80 0 20 2 1 4 -43 4 -44 0 -61 -2 -37 -4z"/>
<path d="M11938 5693 c7 -3 16 -2 19 1 4 3 -2 6 -13 5 -11 0 -14 -3 -6 -6z"/>
<path d="M11187 5683 c18 -2 50 -2 70 0 21 2 7 4 -32 4 -38 0 -55 -2 -38 -4z"/>
<path d="M11988 5683 c7 -3 16 -2 19 1 4 3 -2 6 -13 5 -11 0 -14 -3 -6 -6z"/>
<path d="M11418 5673 c23 -2 59 -2 80 0 20 2 1 4 -43 4 -44 0 -61 -2 -37 -4z"/>
<path d="M12028 5673 c7 -3 16 -2 19 1 4 3 -2 6 -13 5 -11 0 -14 -3 -6 -6z"/>
<path d="M11643 5663 c15 -2 37 -2 50 0 12 2 0 4 -28 4 -27 0 -38 -2 -22 -4z"/>
<path d="M11763 5653 c9 -2 25 -2 35 0 9 3 1 5 -18 5 -19 0 -27 -2 -17 -5z"/>
<path d="M11863 5643 c9 -2 23 -2 30 0 6 3 -1 5 -18 5 -16 0 -22 -2 -12 -5z"/>
<path d="M12135 5640 c27 -12 43 -12 25 0 -8 5 -22 9 -30 9 -10 0 -8 -3 5 -9z"/>
<path d="M11933 5633 c9 -2 23 -2 30 0 6 3 -1 5 -18 5 -16 0 -22 -2 -12 -5z"/>
<path d="M11993 5623 c9 -2 23 -2 30 0 6 3 -1 5 -18 5 -16 0 -22 -2 -12 -5z"/>
<path d="M3317 5613 c18 -2 50 -2 70 0 21 2 7 4 -32 4 -38 0 -55 -2 -38 -4z"/>
<path d="M12048 5613 c7 -3 16 -2 19 1 4 3 -2 6 -13 5 -11 0 -14 -3 -6 -6z"/>
<path d="M3257 5599 c12 -4 7 -8 -17 -14 l-35 -9 35 -3 c117 -11 125 -24 57
-91 -42 -41 -66 -55 -51 -29 4 6 -2 3 -14 -7 -12 -11 -20 -21 -17 -24 6 -7
-15 -32 -27 -32 -5 0 -6 6 -2 13 4 6 -5 1 -19 -12 -15 -14 -25 -27 -22 -29 7
-7 -15 -32 -27 -32 -6 0 -4 8 3 18 7 9 -8 -3 -34 -28 -26 -24 -47 -45 -47 -47
0 -9 39 -1 56 13 18 14 18 15 -4 4 -29 -14 -38 -8 -16 11 22 18 58 23 48 7 -4
-8 -3 -10 2 -5 5 5 9 14 9 20 0 5 6 12 14 15 9 3 11 0 6 -9 -5 -8 -4 -11 1 -6
5 5 9 14 9 20 0 5 6 12 14 15 9 3 11 0 6 -9 -5 -8 -5 -11 -1 -7 4 3 6 8 4 11
-5 6 23 37 34 37 5 0 6 -6 2 -12 -4 -8 -3 -10 2 -5 5 5 9 14 9 20 0 5 6 12 14
15 8 3 11 0 7 -7 -11 -17 0 -13 15 6 12 14 12 16 0 8 -10 -5 -12 -4 -7 4 4 6
15 10 24 9 9 -2 17 3 17 11 0 8 6 16 14 19 9 3 11 0 6 -9 -5 -8 1 -5 13 5 26
23 29 34 5 15 -15 -11 -14 -10 1 9 20 23 42 31 30 10 -4 -7 2 -4 14 6 26 23
29 34 5 15 -10 -7 -7 -1 6 14 27 30 51 38 30 10 -7 -10 0 -6 16 10 23 21 27
31 20 43 -8 13 -32 16 -117 17 -59 1 -100 -1 -91 -4z m200 -15 c3 -8 0 -21 -6
-27 -9 -9 -11 -8 -5 7 4 11 2 21 -7 27 -10 6 -11 9 -1 9 7 0 15 -7 19 -16z
m-277 -198 c0 -2 -8 -10 -17 -17 -16 -13 -17 -12 -4 4 13 16 21 21 21 13z"/>
<path d="M12098 5603 c7 -3 16 -2 19 1 4 3 -2 6 -13 5 -11 0 -14 -3 -6 -6z"/>
<path d="M12220 5600 c-9 -6 -10 -10 -3 -10 6 0 15 5 18 10 8 12 4 12 -15 0z"/>
<path d="M3175 5581 c-6 -11 13 -26 22 -17 4 3 0 6 -8 6 -11 0 -11 2 1 10 9 6
10 10 3 10 -6 0 -14 -4 -18 -9z"/>
<path d="M8468 5573 c12 -2 30 -2 40 0 9 3 -1 5 -23 4 -22 0 -30 -2 -17 -4z"/>
<path d="M10323 5573 c9 -2 25 -2 35 0 9 3 1 5 -18 5 -19 0 -27 -2 -17 -5z"/>
<path d="M12228 5573 c7 -3 16 -2 19 1 4 3 -2 6 -13 5 -11 0 -14 -3 -6 -6z"/>
<path d="M12270 5570 c-13 -8 -12 -10 3 -10 9 0 17 5 17 10 0 12 -1 12 -20 0z"/>
<path d="M3243 5553 c15 -2 37 -2 50 0 12 2 0 4 -28 4 -27 0 -38 -2 -22 -4z"/>
<path d="M3880 5543 c84 -3 108 -7 118 -20 6 -9 12 -12 12 -7 0 27 -27 34
-130 32 l-105 -2 105 -3z"/>
<path d="M3754 5531 c-2 -2 -4 -9 -4 -15 0 -6 5 -4 10 4 5 8 10 12 10 7 0 -4
-62 -182 -139 -395 -178 -498 -186 -521 -173 -534 6 -6 42 -9 85 -6 44 2 73 0
70 -6 -4 -5 -1 -6 5 -3 5 4 8 15 6 25 -3 9 8 58 24 107 l29 90 189 0 189 0 35
-95 c19 -52 39 -101 43 -108 11 -17 156 -17 162 1 3 7 -60 204 -141 437 -80
234 -150 439 -155 457 l-10 32 -115 3 c-64 2 -118 1 -120 -1z m122 -203 c-12
57 10 0 70 -180 67 -201 70 -213 54 -188 -8 13 -10 13 -10 -1 0 -23 -11 -25
-120 -23 -139 3 -140 3 -140 17 0 6 28 99 62 204 58 178 63 191 76 170 l13
-22 -5 23z"/>
<path d="M3851 5304 c0 -11 3 -14 6 -6 3 7 2 16 -1 19 -3 4 -6 -2 -5 -13z"/>
<path d="M3289 5493 l-34 -38 38 34 c20 19 37 36 37 38 0 8 -8 0 -41 -34z"/>
<path d="M10222 5480 c0 -19 2 -27 5 -17 2 9 2 25 0 35 -3 9 -5 1 -5 -18z"/>
<path d="M8770 5476 c0 -2 8 -10 18 -17 15 -13 16 -12 3 4 -13 16 -21 21 -21
13z"/>
<path d="M5442 5383 l-2 -93 88 2 87 2 -82 3 -82 4 -4 87 -3 87 -2 -92z"/>
<path d="M5288 5382 c-2 -43 -8 -84 -12 -90 -4 -7 -29 -12 -57 -12 l-49 0 0
-60 0 -60 56 0 55 0 -3 -235 c-2 -129 -1 -230 1 -224 2 7 10 -3 17 -21 8 -17
12 -35 9 -40 -2 -4 5 -16 17 -26 12 -11 18 -13 13 -5 -5 9 -3 12 6 9 8 -3 13
-10 12 -16 -2 -6 3 -9 10 -7 6 3 26 1 42 -4 19 -6 23 -10 11 -10 -11 -1 -17
-3 -15 -5 5 -5 208 20 214 26 2 2 1 29 -2 61 l-6 57 -63 0 c-57 0 -64 2 -88
31 l-26 31 2 187 3 186 88 3 87 3 2 52 1 52 7 -60 7 -60 1 56 c1 36 -3 60 -11
67 -7 6 -51 12 -97 14 l-85 3 -3 88 -3 87 -68 0 -68 0 -5 -78z"/>
<path d="M5273 5400 c0 -30 2 -43 4 -27 2 15 2 39 0 55 -2 15 -4 2 -4 -28z"/>
<path d="M11910 5409 c0 -5 5 -7 10 -4 6 3 10 8 10 11 0 2 -4 4 -10 4 -5 0
-10 -5 -10 -11z"/>
<path d="M11993 5413 c9 -2 25 -2 35 0 9 3 1 5 -18 5 -19 0 -27 -2 -17 -5z"/>
<path d="M11936 5402 c-3 -5 9 -22 26 -38 18 -16 26 -21 19 -11 -22 28 3 20
30 -10 18 -20 19 -24 4 -13 -20 15 -20 14 -1 -8 20 -23 32 -30 20 -11 -4 7 -1
10 7 7 8 -3 13 -10 12 -16 -1 -5 8 -18 20 -28 18 -16 20 -16 8 -1 -7 9 -9 17
-3 17 12 0 34 -25 27 -32 -3 -3 2 -11 12 -19 14 -12 15 -12 9 0 -6 9 -5 12 5
9 8 -3 13 -10 12 -16 -1 -5 5 -16 14 -24 14 -11 16 -11 9 1 -6 9 -5 12 5 9 8
-3 13 -10 12 -16 -1 -5 5 -16 14 -24 14 -11 16 -11 9 1 -6 9 -5 12 5 9 8 -3
13 -10 12 -16 -1 -5 4 -15 12 -22 10 -9 13 -8 11 3 -1 8 -7 21 -14 29 -6 8
-10 17 -7 20 3 2 -12 20 -32 39 -21 19 -29 24 -19 12 11 -13 15 -23 9 -23 -12
0 -55 45 -48 52 3 2 -7 15 -22 29 -15 13 -21 16 -14 7 22 -29 -3 -20 -33 11
-15 16 -23 31 -18 35 5 3 35 7 65 8 62 3 67 10 9 14 -20 1 -61 5 -89 9 -36 5
-57 4 -67 -4 -9 -7 -17 -8 -20 -2 -3 5 0 12 6 14 9 4 10 6 1 6 -6 1 -14 -3
-17 -7z m275 -189 c13 -16 12 -17 -3 -4 -10 7 -18 15 -18 17 0 8 8 3 21 -13z"/>
<path d="M12068 5403 c7 -3 16 -2 19 1 4 3 -2 6 -13 5 -11 0 -14 -3 -6 -6z"/>
<path d="M12180 5360 c0 -5 5 -10 11 -10 5 0 7 5 4 10 -3 6 -8 10 -11 10 -2 0
-4 -4 -4 -10z"/>
<path d="M12050 5356 c0 -2 8 -10 17 -17 10 -8 14 -9 10 -2 -5 9 8 13 45 16
l53 3 -62 2 c-35 1 -63 0 -63 -2z"/>
<path d="M6027 5303 c18 -2 50 -2 70 0 21 2 7 4 -32 4 -38 0 -55 -2 -38 -4z"/>
<path d="M6728 5303 c17 -2 47 -2 65 0 17 2 3 4 -33 4 -36 0 -50 -2 -32 -4z"/>
<path d="M9163 5303 c9 -2 23 -2 30 0 6 3 -1 5 -18 5 -16 0 -22 -2 -12 -5z"/>
<path d="M9258 5303 c7 -3 16 -2 19 1 4 3 -2 6 -13 5 -11 0 -14 -3 -6 -6z"/>
<path d="M10988 5303 c6 -2 18 -2 25 0 6 3 1 5 -13 5 -14 0 -19 -2 -12 -5z"/>
<path d="M11048 5303 c6 -2 18 -2 25 0 6 3 1 5 -13 5 -14 0 -19 -2 -12 -5z"/>
<path d="M11698 5303 c7 -3 16 -2 19 1 4 3 -2 6 -13 5 -11 0 -14 -3 -6 -6z"/>
<path d="M11798 5303 c7 -3 16 -2 19 1 4 3 -2 6 -13 5 -11 0 -14 -3 -6 -6z"/>
<path d="M4468 5293 c23 -2 59 -2 80 0 20 2 1 4 -43 4 -44 0 -61 -2 -37 -4z"/>
<path d="M4867 5293 c-3 -5 35 -8 83 -8 48 0 86 3 83 8 -2 4 -40 7 -83 7 -43
0 -81 -3 -83 -7z"/>
<path d="M5223 5293 c9 -2 25 -2 35 0 9 3 1 5 -18 5 -19 0 -27 -2 -17 -5z"/>
<path d="M5958 5293 c7 -3 16 -2 19 1 4 3 -2 6 -13 5 -11 0 -14 -3 -6 -6z"/>
<path d="M6665 5290 c14 -6 15 -9 5 -9 -9 -1 -33 -10 -55 -21 -46 -23 -48 -24
-39 -7 4 6 -5 1 -19 -12 -28 -25 -35 -37 -16 -25 7 4 10 1 7 -7 -3 -8 -11 -14
-18 -14 -7 0 -15 -7 -17 -15 -4 -13 -3 -13 7 0 10 13 11 12 6 -3 -3 -10 -6
-24 -6 -30 0 -7 -4 -6 -10 3 -9 15 -9 12 4 -92 2 -18 8 -42 12 -52 6 -15 4
-17 -7 -11 -8 5 -11 5 -6 -1 5 -5 14 -9 20 -9 5 0 12 -6 15 -14 3 -9 0 -11 -9
-6 -8 5 -5 -1 5 -13 20 -23 32 -30 21 -12 -3 6 -2 10 4 10 5 0 12 -4 16 -9 3
-5 54 -28 113 -51 124 -48 154 -71 150 -114 -8 -78 -153 -98 -300 -41 -20 8
-24 1 -33 -68 -4 -30 -10 -45 -17 -41 -7 4 -8 2 -4 -5 4 -6 11 -9 16 -6 5 3
35 -2 67 -12 38 -11 93 -17 158 -17 86 -1 107 3 150 24 28 13 54 26 59 28 5 3
5 -2 1 -9 -5 -8 4 -3 18 10 28 25 35 37 16 25 -7 -4 -10 -1 -7 7 3 8 11 14 18
14 7 0 15 7 17 15 4 13 3 13 -7 0 -10 -12 -11 -12 -5 5 16 45 17 111 1 149
-19 46 -20 49 -3 40 6 -4 0 6 -15 21 -15 16 -35 30 -45 31 -38 5 -239 95 -255
115 -26 30 -22 64 8 88 21 17 41 21 93 21 74 -1 168 -30 163 -50 -3 -11 0 -11
12 0 9 7 15 26 15 44 l-2 31 -8 -35 c-6 -27 -7 -20 -4 27 l5 61 -48 16 c-26 9
-74 19 -107 22 -150 12 -160 12 -140 4z m300 -370 c10 -11 16 -20 13 -20 -3 0
-13 9 -23 20 -10 11 -16 20 -13 20 3 0 13 -9 23 -20z"/>
<path d="M6848 5293 c7 -3 16 -2 19 1 4 3 -2 6 -13 5 -11 0 -14 -3 -6 -6z"/>
<path d="M9720 5294 c60 -8 128 -8 123 -1 -2 4 -37 6 -76 6 -40 -1 -61 -3 -47
-5z"/>
<path d="M10303 5293 c26 -2 67 -2 90 0 23 2 2 3 -48 3 -49 0 -68 -1 -42 -3z"/>
<path d="M10624 5135 c0 -93 2 -133 3 -88 2 45 2 122 0 170 -1 48 -3 12 -3
-82z"/>
<path d="M4080 5285 c0 -5 5 -17 10 -25 5 -8 10 -10 10 -5 0 6 -5 17 -10 25
-5 8 -10 11 -10 5z"/>
<path d="M5153 5235 c0 -33 2 -45 4 -27 2 18 2 45 0 60 -2 15 -4 0 -4 -33z"/>
<path d="M5950 5275 c-25 -8 -51 -13 -58 -10 -7 3 -11 1 -8 -4 3 -5 -5 -16
-19 -25 -32 -21 -41 -20 -24 2 7 9 -4 1 -24 -17 -37 -35 -47 -48 -26 -35 7 4
10 3 7 -2 -2 -5 -17 -36 -33 -69 -28 -57 -30 -67 -30 -185 0 -112 3 -130 25
-175 13 -27 26 -54 28 -59 3 -5 -1 -5 -9 0 -12 7 -12 5 0 -9 7 -9 17 -15 21
-12 4 3 13 -2 20 -10 7 -8 9 -15 5 -15 -4 0 -2 -7 5 -15 7 -8 16 -13 20 -10 4
3 30 -5 56 -17 40 -18 67 -22 144 -22 89 0 110 4 194 39 15 7 17 5 11 -6 -5
-8 -5 -11 1 -6 5 5 9 14 9 19 0 6 6 13 14 16 9 3 11 0 6 -9 -5 -8 4 -3 18 10
27 25 35 37 17 26 -17 -10 -11 12 7 26 14 12 16 12 8 0 -5 -9 -4 -12 3 -7 6 4
8 14 5 23 -4 11 -3 14 5 9 8 -5 10 -1 5 10 -3 10 -2 15 3 12 5 -4 10 4 10 15
1 12 6 46 13 76 15 73 14 135 -5 206 -9 33 -17 70 -17 82 -1 12 -6 21 -11 20
-5 -1 -11 4 -14 12 -3 9 0 11 9 6 8 -5 11 -4 6 1 -5 5 -14 9 -19 9 -6 0 -13 6
-16 14 -3 9 0 11 9 6 8 -5 3 4 -10 18 -26 28 -42 38 -21 12 7 -8 8 -15 2 -15
-11 0 -30 20 -32 35 -1 6 -8 9 -17 7 -10 -2 -12 1 -7 9 4 8 3 10 -5 5 -6 -4
-21 -4 -32 -1 -12 4 -17 10 -11 14 22 14 -194 10 -238 -4z m-120 -59 c0 -2 -8
-10 -17 -17 -16 -13 -17 -12 -4 4 13 16 21 21 21 13z m285 -56 c14 -5 24 -14
21 -19 -7 -10 38 -53 47 -45 17 17 40 -74 41 -156 0 -71 -4 -94 -24 -135 -36
-73 -79 -98 -157 -93 -55 3 -67 8 -98 38 -43 42 -65 110 -64 194 1 69 19 141
36 141 6 0 15 4 20 9 5 5 3 6 -4 2 -21 -12 -15 9 10 32 42 40 116 53 172 32z
m55 -35 c20 -24 6 -28 -15 -5 -10 11 -13 20 -8 20 6 0 16 -7 23 -15z"/>
<path d="M6033 5153 c15 -2 37 -2 50 0 12 2 0 4 -28 4 -27 0 -38 -2 -22 -4z"/>
<path d="M5975 5140 c-3 -6 1 -7 9 -4 18 7 21 14 7 14 -6 0 -13 -4 -16 -10z"/>
<path d="M6201 5014 c0 -11 3 -14 6 -6 3 7 2 16 -1 19 -3 4 -6 -2 -5 -13z"/>
<path d="M5893 4945 c0 -38 2 -53 4 -32 2 20 2 52 0 70 -2 17 -4 1 -4 -38z"/>
<path d="M6212 4940 c0 -19 2 -27 5 -17 2 9 2 25 0 35 -3 9 -5 1 -5 -18z"/>
<path d="M6201 4854 c0 -11 3 -14 6 -6 3 7 2 16 -1 19 -3 4 -6 -2 -5 -13z"/>
<path d="M5901 4844 c0 -11 3 -14 6 -6 3 7 2 16 -1 19 -3 4 -6 -2 -5 -13z"/>
<path d="M6181 4803 c-10 -26 -10 -27 4 -9 8 11 15 23 15 28 0 15 -7 8 -19
-19z"/>
<path d="M5945 4760 c10 -11 20 -20 23 -20 3 0 -3 9 -13 20 -10 11 -20 20 -23
20 -3 0 3 -9 13 -20z"/>
<path d="M6100 4734 c-24 -9 -29 -13 -14 -13 11 -1 29 6 40 14 22 17 20 17
-26 -1z"/>
<path d="M6008 4723 c7 -3 16 -2 19 1 4 3 -2 6 -13 5 -11 0 -14 -3 -6 -6z"/>
<path d="M6604 5274 c-18 -14 -18 -14 6 -3 31 14 36 19 24 19 -6 0 -19 -7 -30
-16z"/>
<path d="M6888 5283 c7 -3 16 -2 19 1 4 3 -2 6 -13 5 -11 0 -14 -3 -6 -6z"/>
<path d="M4432 5003 c3 -242 5 -282 21 -310 20 -38 21 -47 5 -37 -7 4 0 -7 16
-24 30 -33 43 -41 30 -20 -5 8 -2 9 12 3 128 -53 211 -46 290 27 46 42 49 41
57 -17 4 -26 4 -25 7 10 l3 40 6 -40 6 -40 79 -5 c49 -3 80 -1 82 5 3 6 3 129
1 275 l-2 265 -5 -275 -5 -275 -5 345 -5 345 -75 0 -75 0 -5 -233 -5 -232 -28
-35 c-26 -33 -57 -50 -41 -22 5 7 1 7 -12 -3 -30 -22 -30 -24 -9 -16 15 5 17
4 9 -4 -6 -6 -29 -13 -50 -15 -36 -2 -37 -2 -9 5 27 8 25 8 -15 7 -51 -1 -90
9 -90 25 0 6 7 5 18 -3 15 -13 16 -12 3 3 -7 10 -17 15 -22 12 -23 -14 -32 60
-33 281 l-1 230 -78 3 -79 3 4 -278z m59 -370 c13 -16 12 -17 -3 -4 -17 13
-22 21 -14 21 2 0 10 -8 17 -17z"/>
<path d="M6930 5270 c8 -5 20 -10 25 -10 6 0 3 5 -5 10 -8 5 -19 10 -25 10 -5
0 -3 -5 5 -10z"/>
<path d="M9674 5115 c0 -88 2 -123 3 -77 2 46 2 118 0 160 -1 42 -3 5 -3 -83z"/>
<path d="M4852 5039 c-1 -131 -6 -230 -12 -237 -5 -7 -3 -6 5 1 13 11 15 47
12 238 l-2 224 -3 -226z"/>
<path d="M6972 5235 c0 -16 2 -22 5 -12 2 9 2 23 0 30 -3 6 -5 -1 -5 -18z"/>
<path d="M10132 5240 c0 -14 2 -19 5 -12 2 6 2 18 0 25 -3 6 -5 1 -5 -13z"/>
<path d="M8941 5214 c0 -11 3 -14 6 -6 3 7 2 16 -1 19 -3 4 -6 -2 -5 -13z"/>
<path d="M11509 5213 c-13 -16 -12 -17 4 -4 9 7 17 15 17 17 0 8 -8 3 -21 -13z"/>
<path d="M10244 4885 c0 -165 2 -234 3 -153 2 81 2 216 0 300 -1 84 -3 18 -3
-147z"/>
<path d="M5760 5150 c-6 -11 -8 -20 -6 -20 3 0 10 9 16 20 6 11 8 20 6 20 -3
0 -10 -9 -16 -20z"/>
<path d="M6718 5153 c7 -3 16 -2 19 1 4 3 -2 6 -13 5 -11 0 -14 -3 -6 -6z"/>
<path d="M6813 5153 c9 -2 23 -2 30 0 6 3 -1 5 -18 5 -16 0 -22 -2 -12 -5z"/>
<path d="M5264 4940 c0 -118 2 -167 3 -107 2 59 2 155 0 215 -1 59 -3 10 -3
-108z"/>
<path d="M5444 4965 c0 -104 2 -146 3 -92 2 54 2 139 0 190 -1 51 -3 7 -3 -98z"/>
<path d="M7154 4965 c0 -104 2 -146 3 -92 2 54 2 139 0 190 -1 51 -3 7 -3 -98z"/>
<path d="M7913 5095 c0 -33 2 -45 4 -27 2 18 2 45 0 60 -2 15 -4 0 -4 -33z"/>
<path d="M8242 5130 c0 -14 2 -19 5 -12 2 6 2 18 0 25 -3 6 -5 1 -5 -13z"/>
<path d="M11649 5133 c-13 -16 -12 -17 4 -4 9 7 17 15 17 17 0 8 -8 3 -21 -13z"/>
<path d="M12283 5135 c0 -8 4 -15 9 -15 4 0 8 4 8 9 0 6 -4 12 -8 15 -5 3 -9
-1 -9 -9z"/>
<path d="M6493 5085 c0 -22 2 -30 4 -17 2 12 2 30 0 40 -3 9 -5 -1 -4 -23z"/>
<path d="M6672 5100 c0 -14 2 -19 5 -12 2 6 2 18 0 25 -3 6 -5 1 -5 -13z"/>
<path d="M7420 5116 c0 -2 8 -10 18 -17 15 -13 16 -12 3 4 -13 16 -21 21 -21
13z"/>
<path d="M3586 5065 c-9 -26 -7 -32 5 -12 6 10 9 21 6 23 -2 3 -7 -2 -11 -11z"/>
<path d="M7638 5063 c12 -2 30 -2 40 0 9 3 -1 5 -23 4 -22 0 -30 -2 -17 -4z"/>
<path d="M5721 5044 c0 -11 3 -14 6 -6 3 7 2 16 -1 19 -3 4 -6 -2 -5 -13z"/>
<path d="M6714 5046 c11 -9 24 -16 30 -16 12 0 7 5 -24 19 -24 11 -24 11 -6
-3z"/>
<path d="M7730 5046 c0 -2 8 -10 18 -17 15 -13 16 -12 3 4 -13 16 -21 21 -21
13z"/>
<path d="M6391 5024 c0 -11 3 -14 6 -6 3 7 2 16 -1 19 -3 4 -6 -2 -5 -13z"/>
<path d="M10813 4995 c0 -27 2 -38 4 -22 2 15 2 37 0 50 -2 12 -4 0 -4 -28z"/>
<path d="M6770 5020 c8 -5 20 -10 25 -10 6 0 3 5 -5 10 -8 5 -19 10 -25 10 -5
0 -3 -5 5 -10z"/>
<path d="M7913 4995 c0 -22 2 -30 4 -17 2 12 2 30 0 40 -3 9 -5 -1 -4 -23z"/>
<path d="M8241 5014 c0 -11 3 -14 6 -6 3 7 2 16 -1 19 -3 4 -6 -2 -5 -13z"/>
<path d="M5713 4930 c0 -47 2 -66 4 -42 2 23 2 61 0 85 -2 23 -4 4 -4 -43z"/>
<path d="M7483 4970 c0 -25 2 -35 4 -22 2 12 2 32 0 45 -2 12 -4 2 -4 -23z"/>
<path d="M9864 4800 c0 -118 2 -167 3 -107 2 59 2 155 0 215 -1 59 -3 10 -3
-108z"/>
<path d="M6850 4990 c8 -5 20 -10 25 -10 6 0 3 5 -5 10 -8 5 -19 10 -25 10 -5
0 -3 -5 5 -10z"/>
<path d="M9218 4993 c12 -2 30 -2 40 0 9 3 -1 5 -23 4 -22 0 -30 -2 -17 -4z"/>
<path d="M8031 4964 c0 -11 3 -14 6 -6 3 7 2 16 -1 19 -3 4 -6 -2 -5 -13z"/>
<path d="M4191 4965 c1 -19 18 -51 18 -35 0 8 -4 22 -9 30 -5 8 -9 11 -9 5z"/>
<path d="M4413 4905 c0 -38 2 -53 4 -32 2 20 2 52 0 70 -2 17 -4 1 -4 -38z"/>
<path d="M6403 4935 c0 -22 2 -30 4 -17 2 12 2 30 0 40 -3 9 -5 -1 -4 -23z"/>
<path d="M11413 4915 c0 -33 2 -45 4 -27 2 18 2 45 0 60 -2 15 -4 0 -4 -33z"/>
<path d="M11122 4940 c0 -14 2 -19 5 -12 2 6 2 18 0 25 -3 6 -5 1 -5 -13z"/>
<path d="M7782 4920 c0 -14 2 -19 5 -12 2 6 2 18 0 25 -3 6 -5 1 -5 -13z"/>
<path d="M7912 4910 c0 -19 2 -27 5 -17 2 9 2 25 0 35 -3 9 -5 1 -5 -18z"/>
<path d="M6580 4925 c0 -7 61 -37 66 -33 2 3 -12 12 -31 21 -19 9 -35 15 -35
12z"/>
<path d="M11648 4883 c23 -2 59 -2 80 0 20 2 1 4 -43 4 -44 0 -61 -2 -37 -4z"/>
<path d="M9198 4873 c7 -3 16 -2 19 1 4 3 -2 6 -13 5 -11 0 -14 -3 -6 -6z"/>
<path d="M6392 4840 c0 -14 2 -19 5 -12 2 6 2 18 0 25 -3 6 -5 1 -5 -13z"/>
<path d="M7912 4825 c0 -16 2 -22 5 -12 2 9 2 23 0 30 -3 6 -5 -1 -5 -18z"/>
<path d="M4602 4820 c0 -14 2 -19 5 -12 2 6 2 18 0 25 -3 6 -5 1 -5 -13z"/>
<path d="M7263 4833 c9 -2 23 -2 30 0 6 3 -1 5 -18 5 -16 0 -22 -2 -12 -5z"/>
<path d="M7429 4823 c-13 -16 -12 -17 4 -4 16 13 21 21 13 21 -2 0 -10 -8 -17
-17z"/>
<path d="M3496 4815 c-9 -26 -7 -32 5 -12 6 10 9 21 6 23 -2 3 -7 -2 -11 -11z"/>
<path d="M5721 4814 c0 -11 3 -14 6 -6 3 7 2 16 -1 19 -3 4 -6 -2 -5 -13z"/>
<path d="M6817 4820 c6 -8 13 -26 16 -40 l4 -25 2 26 c0 15 -7 33 -16 40 -16
12 -17 12 -6 -1z"/>
<path d="M8325 4810 c10 -11 20 -20 23 -20 3 0 -3 9 -13 20 -10 11 -20 20 -23
20 -3 0 3 -9 13 -20z"/>
<path d="M7023 4785 c0 -22 2 -30 4 -17 2 12 2 30 0 40 -3 9 -5 -1 -4 -23z"/>
<path d="M3680 4783 c0 -13 3 -14 8 -6 6 9 59 13 187 16 l180 2 -187 3 c-173
2 -188 1 -188 -15z"/>
<path d="M8750 4796 c0 -2 8 -10 18 -17 15 -13 16 -12 3 4 -13 16 -21 21 -21
13z"/>
<path d="M9504 4690 c0 -58 1 -81 3 -52 2 28 2 76 0 105 -2 28 -3 5 -3 -53z"/>
<path d="M5450 4766 c0 -2 8 -10 18 -17 15 -13 16 -12 3 4 -13 16 -21 21 -21
13z"/>
<path d="M7193 4763 c15 -2 37 -2 50 0 12 2 0 4 -28 4 -27 0 -38 -2 -22 -4z"/>
<path d="M5740 4754 c0 -6 7 -19 16 -30 14 -18 14 -18 3 6 -14 31 -19 36 -19
24z"/>
<path d="M7643 4753 c9 -2 25 -2 35 0 9 3 1 5 -18 5 -19 0 -27 -2 -17 -5z"/>
<path d="M4421 4734 c0 -11 3 -14 6 -6 3 7 2 16 -1 19 -3 4 -6 -2 -5 -13z"/>
<path d="M5580 4740 c-23 -8 -23 -8 7 -7 17 1 29 5 27 9 -3 4 -6 8 -7 7 -1 -1
-13 -5 -27 -9z"/>
<path d="M6800 4735 c-14 -8 -20 -14 -14 -15 5 0 19 7 30 15 24 18 16 19 -16
0z"/>
<path d="M6628 4723 c7 -3 16 -2 19 1 4 3 -2 6 -13 5 -11 0 -14 -3 -6 -6z"/>
<path d="M6502 4695 c0 -16 2 -22 5 -12 2 9 2 23 0 30 -3 6 -5 -1 -5 -18z"/>
<path d="M6693 4713 c15 -2 39 -2 55 0 15 2 2 4 -28 4 -30 0 -43 -2 -27 -4z"/>
<path d="M5622 4680 c0 -19 2 -27 5 -17 2 9 2 25 0 35 -3 9 -5 1 -5 -18z"/>
<path d="M11480 4686 c0 -2 8 -10 18 -17 15 -13 16 -12 3 4 -13 16 -21 21 -21
13z"/>
<path d="M5280 4671 c0 -6 4 -13 10 -16 6 -3 7 1 4 9 -7 18 -14 21 -14 7z"/>
<path d="M3441 4644 c0 -11 3 -14 6 -6 3 7 2 16 -1 19 -3 4 -6 -2 -5 -13z"/>
<path d="M9309 4633 c-13 -16 -12 -17 3 -5 13 10 17 10 21 0 4 -8 6 -7 6 5 1
9 -3 17 -8 17 -5 0 -15 -8 -22 -17z"/>
<path d="M4809 4623 c-13 -16 -12 -17 4 -4 16 13 21 21 13 21 -2 0 -10 -8 -17
-17z"/>
<path d="M8940 4636 c0 -2 8 -10 18 -17 15 -13 16 -12 3 4 -13 16 -21 21 -21
13z"/>
<path d="M4308 4607 c-3 -19 -2 -25 4 -19 6 6 8 18 6 28 -3 14 -5 12 -10 -9z"/>
<path d="M3430 4600 c0 -11 4 -20 9 -20 5 0 7 9 4 20 -3 11 -7 20 -9 20 -2 0
-4 -9 -4 -20z"/>
<path d="M5630 4611 c0 -6 -10 -16 -22 -21 -16 -6 -18 -9 -7 -9 19 -1 45 26
35 36 -3 3 -6 1 -6 -6z"/>
<path d="M5874 4606 c11 -9 24 -16 30 -16 12 0 7 5 -24 19 -24 11 -24 11 -6
-3z"/>
<path d="M6900 4605 c-14 -8 -20 -14 -14 -15 5 0 19 7 30 15 24 18 16 19 -16
0z"/>
<path d="M6588 4583 c7 -3 16 -2 19 1 4 3 -2 6 -13 5 -11 0 -14 -3 -6 -6z"/>
<path d="M3528 4573 c7 -3 16 -2 19 1 4 3 -2 6 -13 5 -11 0 -14 -3 -6 -6z"/>
<path d="M4568 4573 c7 -3 16 -2 19 1 4 3 -2 6 -13 5 -11 0 -14 -3 -6 -6z"/>
<path d="M5543 4573 c9 -2 23 -2 30 0 6 3 -1 5 -18 5 -16 0 -22 -2 -12 -5z"/>
<path d="M5958 4573 c7 -3 16 -2 19 1 4 3 -2 6 -13 5 -11 0 -14 -3 -6 -6z"/>
<path d="M6128 4573 c6 -2 18 -2 25 0 6 3 1 5 -13 5 -14 0 -19 -2 -12 -5z"/>
<path d="M6628 4573 c6 -2 18 -2 25 0 6 3 1 5 -13 5 -14 0 -19 -2 -12 -5z"/>
<path d="M6818 4573 c7 -3 16 -2 19 1 4 3 -2 6 -13 5 -11 0 -14 -3 -6 -6z"/>
<path d="M9387 4573 c18 -2 50 -2 70 0 21 2 7 4 -32 4 -38 0 -55 -2 -38 -4z"/>
<path d="M9737 4573 c18 -2 50 -2 70 0 21 2 7 4 -32 4 -38 0 -55 -2 -38 -4z"/>
<path d="M10307 4573 c18 -2 50 -2 70 0 21 2 7 4 -32 4 -38 0 -55 -2 -38 -4z"/>
<path d="M10678 4573 c17 -2 47 -2 65 0 17 2 3 4 -33 4 -36 0 -50 -2 -32 -4z"/>
<path d="M4628 4563 c12 -2 32 -2 45 0 12 2 2 4 -23 4 -25 0 -35 -2 -22 -4z"/>
<path d="M6023 4563 c15 -2 39 -2 55 0 15 2 2 4 -28 4 -30 0 -43 -2 -27 -4z"/>
<path d="M6713 4563 c15 -2 39 -2 55 0 15 2 2 4 -28 4 -30 0 -43 -2 -27 -4z"/>
<path d="M8418 4563 c7 -3 16 -2 19 1 4 3 -2 6 -13 5 -11 0 -14 -3 -6 -6z"/>
<path d="M8528 4563 c7 -3 16 -2 19 1 4 3 -2 6 -13 5 -11 0 -14 -3 -6 -6z"/>
<path d="M10968 4563 c7 -3 16 -2 19 1 4 3 -2 6 -13 5 -11 0 -14 -3 -6 -6z"/>
<path d="M11028 4563 c6 -2 18 -2 25 0 6 3 1 5 -13 5 -14 0 -19 -2 -12 -5z"/>
<path d="M11723 4563 c9 -2 23 -2 30 0 6 3 -1 5 -18 5 -16 0 -22 -2 -12 -5z"/>
<path d="M11783 4563 c9 -2 23 -2 30 0 6 3 -1 5 -18 5 -16 0 -22 -2 -12 -5z"/>
<path d="M8203 4145 c0 -44 2 -61 4 -37 2 23 2 59 0 80 -2 20 -4 1 -4 -43z"/>
<path d="M9578 4208 c9 -9 8 -16 -6 -32 -17 -21 -17 -21 5 -2 18 15 20 22 12
33 -6 7 -14 13 -17 13 -3 0 -1 -5 6 -12z"/>
<path d="M6448 4183 c7 -3 16 -2 19 1 4 3 -2 6 -13 5 -11 0 -14 -3 -6 -6z"/>
<path d="M8458 4183 c7 -3 16 -2 19 1 4 3 -2 6 -13 5 -11 0 -14 -3 -6 -6z"/>
<path d="M8813 4183 c9 -2 25 -2 35 0 9 3 1 5 -18 5 -19 0 -27 -2 -17 -5z"/>
<path d="M8409 4163 c-13 -16 -12 -17 4 -4 9 7 17 15 17 17 0 8 -8 3 -21 -13z"/>
<path d="M4362 4143 c262 -2 694 -2 960 0 266 1 51 2 -477 2 -528 0 -745 -1
-483 -2z"/>
<path d="M6322 4120 c0 -19 2 -27 5 -17 2 9 2 25 0 35 -3 9 -5 1 -5 -18z"/>
<path d="M9508 4143 c7 -3 16 -2 19 1 4 3 -2 6 -13 5 -11 0 -14 -3 -6 -6z"/>
<path d="M9845 4139 c-4 -6 -4 -13 -1 -16 3 -4 6 -1 6 5 0 16 1896 17 1903 2
3 -6 4 -5 3 2 -4 17 -1901 24 -1911 7z"/>
<path d="M6522 4120 c0 -14 2 -19 5 -12 2 6 2 18 0 25 -3 6 -5 1 -5 -13z"/>
<path d="M9190 4100 l-65 -7 62 -1 c34 -1 65 3 68 8 3 6 5 9 3 8 -2 -1 -32 -4
-68 -8z"/>
<path d="M7768 4093 c17 -2 47 -2 65 0 17 2 3 4 -33 4 -36 0 -50 -2 -32 -4z"/>
<path d="M7995 4080 c-3 -6 1 -7 9 -4 18 7 21 14 7 14 -6 0 -13 -4 -16 -10z"/>
<path d="M7313 4040 c0 -25 2 -35 4 -22 2 12 2 32 0 45 -2 12 -4 2 -4 -23z"/>
<path d="M8559 4033 c-13 -16 -12 -17 4 -4 9 7 17 15 17 17 0 8 -8 3 -21 -13z"/>
<path d="M6443 3993 c9 -2 23 -2 30 0 6 3 -1 5 -18 5 -16 0 -22 -2 -12 -5z"/>
<path d="M6803 3993 c9 -2 23 -2 30 0 6 3 -1 5 -18 5 -16 0 -22 -2 -12 -5z"/>
<path d="M8088 3993 c6 -2 18 -2 25 0 6 3 1 5 -13 5 -14 0 -19 -2 -12 -5z"/>
<path d="M8453 3993 c9 -2 23 -2 30 0 6 3 -1 5 -18 5 -16 0 -22 -2 -12 -5z"/>
<path d="M9483 3993 c9 -2 23 -2 30 0 6 3 -1 5 -18 5 -16 0 -22 -2 -12 -5z"/>
</g>
</svg>
